<mxfile host="app.diagrams.net" modified="2020-08-31T11:06:11.959Z" agent="5.0 (Macintosh; Intel Mac OS X 10_14_6) AppleWebKit/537.36 (KHTML, like Gecko) Chrome/84.0.4147.135 Safari/537.36" etag="d6ZHJTcj_MxxywxtrmRJ" version="13.6.5" type="github">
  <diagram id="prtHgNgQTEPvFCAcTncT" name="Page-1">
    <mxGraphModel dx="1164" dy="773" grid="1" gridSize="10" guides="1" tooltips="1" connect="1" arrows="1" fold="1" page="1" pageScale="1" pageWidth="827" pageHeight="1169" math="0" shadow="0">
      <root>
        <mxCell id="0" />
        <mxCell id="1" parent="0" />
        <mxCell id="CYHP40te5l4L-S4rGWA8-4" value="" style="rounded=0;whiteSpace=wrap;html=1;" vertex="1" parent="1">
          <mxGeometry x="470" y="270" width="430" height="735" as="geometry" />
        </mxCell>
        <mxCell id="CYHP40te5l4L-S4rGWA8-16" value="" style="rounded=0;whiteSpace=wrap;html=1;" vertex="1" parent="1">
          <mxGeometry x="550" y="330" width="130" height="70" as="geometry" />
        </mxCell>
        <mxCell id="CYHP40te5l4L-S4rGWA8-2" value="" style="rounded=0;whiteSpace=wrap;html=1;" vertex="1" parent="1">
          <mxGeometry x="145" y="297.5" width="200" height="605" as="geometry" />
        </mxCell>
        <mxCell id="CYHP40te5l4L-S4rGWA8-5" value="crm-rn" style="text;html=1;strokeColor=none;fillColor=none;align=center;verticalAlign=middle;whiteSpace=wrap;rounded=0;" vertex="1" parent="1">
          <mxGeometry x="200" y="320" width="40" height="10" as="geometry" />
        </mxCell>
        <mxCell id="CYHP40te5l4L-S4rGWA8-6" value="common-components&lt;br&gt;" style="text;html=1;strokeColor=none;fillColor=none;align=center;verticalAlign=middle;whiteSpace=wrap;rounded=0;" vertex="1" parent="1">
          <mxGeometry x="550" y="290" width="50" height="20" as="geometry" />
        </mxCell>
        <mxCell id="CYHP40te5l4L-S4rGWA8-9" value="provider&lt;br&gt;consumer" style="text;html=1;strokeColor=none;fillColor=none;align=center;verticalAlign=middle;whiteSpace=wrap;rounded=0;" vertex="1" parent="1">
          <mxGeometry x="575" y="340" width="70" height="40" as="geometry" />
        </mxCell>
        <mxCell id="CYHP40te5l4L-S4rGWA8-10" value="&lt;span style=&quot;font-size: 13.3333px&quot;&gt;组件&lt;/span&gt;" style="rounded=0;whiteSpace=wrap;html=1;" vertex="1" parent="1">
          <mxGeometry x="536.25" y="720" width="145" height="200" as="geometry" />
        </mxCell>
        <mxCell id="CYHP40te5l4L-S4rGWA8-19" style="edgeStyle=orthogonalEdgeStyle;rounded=0;orthogonalLoop=1;jettySize=auto;html=1;exitX=0;exitY=0;exitDx=0;exitDy=0;entryX=0;entryY=0.75;entryDx=0;entryDy=0;" edge="1" parent="1" source="CYHP40te5l4L-S4rGWA8-11" target="CYHP40te5l4L-S4rGWA8-9">
          <mxGeometry relative="1" as="geometry" />
        </mxCell>
        <mxCell id="CYHP40te5l4L-S4rGWA8-11" value="颜色key-value" style="text;html=1;strokeColor=none;fillColor=none;align=center;verticalAlign=middle;whiteSpace=wrap;rounded=0;" vertex="1" parent="1">
          <mxGeometry x="577.5" y="380" width="62.5" height="10" as="geometry" />
        </mxCell>
        <mxCell id="CYHP40te5l4L-S4rGWA8-13" value="" style="endArrow=open;html=1;exitX=0;exitY=0.5;exitDx=0;exitDy=0;startArrow=none;startFill=0;endFill=0;entryX=0.997;entryY=0.307;entryDx=0;entryDy=0;entryPerimeter=0;" edge="1" parent="1" source="CYHP40te5l4L-S4rGWA8-16" target="CYHP40te5l4L-S4rGWA8-20">
          <mxGeometry width="50" height="50" relative="1" as="geometry">
            <mxPoint x="550" y="370" as="sourcePoint" />
            <mxPoint x="300" y="410" as="targetPoint" />
          </mxGeometry>
        </mxCell>
        <mxCell id="CYHP40te5l4L-S4rGWA8-17" value="" style="endArrow=classic;html=1;entryX=0.5;entryY=0;entryDx=0;entryDy=0;exitX=0.5;exitY=1;exitDx=0;exitDy=0;" edge="1" parent="1" source="CYHP40te5l4L-S4rGWA8-16" target="CYHP40te5l4L-S4rGWA8-10">
          <mxGeometry width="50" height="50" relative="1" as="geometry">
            <mxPoint x="390" y="440" as="sourcePoint" />
            <mxPoint x="440" y="390" as="targetPoint" />
          </mxGeometry>
        </mxCell>
        <mxCell id="CYHP40te5l4L-S4rGWA8-20" value="" style="rounded=0;whiteSpace=wrap;html=1;" vertex="1" parent="1">
          <mxGeometry x="180" y="345" width="120" height="240" as="geometry" />
        </mxCell>
        <mxCell id="CYHP40te5l4L-S4rGWA8-21" value="consumer&lt;br&gt;取theme相关数值" style="text;html=1;strokeColor=none;fillColor=none;align=center;verticalAlign=middle;whiteSpace=wrap;rounded=0;" vertex="1" parent="1">
          <mxGeometry x="210" y="390" width="70" height="30" as="geometry" />
        </mxCell>
        <mxCell id="CYHP40te5l4L-S4rGWA8-24" value="基础RN组件" style="text;html=1;align=center;verticalAlign=middle;whiteSpace=wrap;rounded=1;" vertex="1" parent="1">
          <mxGeometry x="670" y="570" width="81.25" height="60" as="geometry" />
        </mxCell>
        <mxCell id="CYHP40te5l4L-S4rGWA8-26" value="" style="endArrow=classic;html=1;exitX=0.75;exitY=1;exitDx=0;exitDy=0;entryX=0.5;entryY=0;entryDx=0;entryDy=0;" edge="1" parent="1" source="CYHP40te5l4L-S4rGWA8-16" target="CYHP40te5l4L-S4rGWA8-29">
          <mxGeometry width="50" height="50" relative="1" as="geometry">
            <mxPoint x="600" y="650" as="sourcePoint" />
            <mxPoint x="650" y="600" as="targetPoint" />
          </mxGeometry>
        </mxCell>
        <mxCell id="CYHP40te5l4L-S4rGWA8-33" style="edgeStyle=orthogonalEdgeStyle;rounded=0;orthogonalLoop=1;jettySize=auto;html=1;exitX=0.5;exitY=1;exitDx=0;exitDy=0;entryX=1;entryY=0.5;entryDx=0;entryDy=0;" edge="1" parent="1" source="CYHP40te5l4L-S4rGWA8-29" target="CYHP40te5l4L-S4rGWA8-10">
          <mxGeometry relative="1" as="geometry" />
        </mxCell>
        <mxCell id="CYHP40te5l4L-S4rGWA8-34" style="edgeStyle=orthogonalEdgeStyle;rounded=0;orthogonalLoop=1;jettySize=auto;html=1;exitX=0;exitY=0.5;exitDx=0;exitDy=0;" edge="1" parent="1" source="CYHP40te5l4L-S4rGWA8-29" target="CYHP40te5l4L-S4rGWA8-2">
          <mxGeometry relative="1" as="geometry" />
        </mxCell>
        <mxCell id="CYHP40te5l4L-S4rGWA8-29" value="" style="rounded=0;whiteSpace=wrap;html=1;fillColor=none;gradientColor=none;" vertex="1" parent="1">
          <mxGeometry x="653.13" y="550" width="195" height="100" as="geometry" />
        </mxCell>
        <mxCell id="CYHP40te5l4L-S4rGWA8-35" value="" style="endArrow=classic;html=1;exitX=0;exitY=0.5;exitDx=0;exitDy=0;entryX=1.008;entryY=0.869;entryDx=0;entryDy=0;entryPerimeter=0;" edge="1" parent="1" source="CYHP40te5l4L-S4rGWA8-10" target="CYHP40te5l4L-S4rGWA8-2">
          <mxGeometry width="50" height="50" relative="1" as="geometry">
            <mxPoint x="600" y="650" as="sourcePoint" />
            <mxPoint x="650" y="600" as="targetPoint" />
          </mxGeometry>
        </mxCell>
      </root>
    </mxGraphModel>
  </diagram>
</mxfile>
